<svg width="27" height="28" viewBox="0 0 27 28" fill="none" xmlns="http://www.w3.org/2000/svg">
<path d="M18.27 25.7335C17.9716 25.7335 17.6854 25.615 17.4745 25.404C17.2635 25.1931 17.145 24.9069 17.145 24.6085V21.6835C17.1799 21.3471 17.1439 21.007 17.0393 20.6854C16.9346 20.3637 16.7637 20.0675 16.5375 19.816C16.3974 19.6641 16.3019 19.4766 16.2614 19.274C16.2209 19.0714 16.2369 18.8615 16.3078 18.6674C16.3787 18.4734 16.5017 18.3026 16.6632 18.1738C16.8248 18.045 17.0187 17.9631 17.2237 17.9373C19.9687 17.611 22.5 16.7335 22.5 11.9748C22.5008 11.0861 22.2386 10.2171 21.7462 9.47728C21.2919 8.79624 21.126 7.96288 21.285 7.15978C21.3864 6.63589 21.3864 6.09742 21.285 5.57353C20.4426 5.85836 19.6494 6.27202 18.9337 6.79978C18.7984 6.89587 18.6435 6.96084 18.4801 6.99001C18.3167 7.01919 18.1489 7.01185 17.9887 6.96853C15.9585 6.39485 13.809 6.39485 11.7787 6.96853C11.6185 7.01185 11.4507 7.01919 11.2873 6.99001C11.1239 6.96084 10.969 6.89587 10.8337 6.79978C10.1136 6.2659 9.31207 5.85182 8.45996 5.57353C8.35297 6.09687 8.35297 6.63644 8.45996 7.15978C8.60743 7.97299 8.43404 8.81171 7.97621 9.49978C7.486 10.2448 7.22403 11.1167 7.22246 12.0085C7.22246 16.3848 9.33746 17.5548 12.51 17.9598C12.7176 17.9855 12.9139 18.0687 13.0768 18.1998C13.2398 18.331 13.3629 18.505 13.4325 18.7023C13.4979 18.8937 13.5104 19.0993 13.4689 19.2972C13.4273 19.4952 13.3331 19.6783 13.1962 19.8273C12.9774 20.0612 12.8094 20.3379 12.7029 20.64C12.5964 20.942 12.5537 21.2629 12.5775 21.5823V24.6085C12.5775 24.9069 12.4589 25.1931 12.248 25.404C12.037 25.615 11.7508 25.7335 11.4525 25.7335C11.1541 25.7335 10.8679 25.615 10.657 25.404C10.446 25.1931 10.3275 24.9069 10.3275 24.6085V23.9673C9.22199 24.0944 8.10224 23.9463 7.06786 23.5361C6.03349 23.1258 5.11657 22.4663 4.39871 21.616C4.02971 21.207 3.587 20.8712 3.09371 20.626C2.9504 20.5891 2.81578 20.5243 2.69751 20.4353C2.57925 20.3464 2.47967 20.235 2.40445 20.1075C2.32924 19.9801 2.27986 19.8391 2.25914 19.6925C2.23843 19.546 2.24677 19.3968 2.28371 19.2535C2.32064 19.1102 2.38544 18.9756 2.4744 18.8573C2.56337 18.7391 2.67475 18.6395 2.8022 18.5643C2.92965 18.4891 3.07067 18.4397 3.2172 18.419C3.36373 18.3983 3.5129 18.4066 3.65621 18.4435C4.52161 18.7588 5.29488 19.2846 5.90621 19.9735C7.03121 21.0985 8.15621 22.0885 10.2937 21.6835C10.2561 21.0795 10.3442 20.4743 10.5525 19.906C8.23496 19.321 4.92746 17.656 4.92746 12.031C4.92449 10.6986 5.31593 9.39513 6.05246 8.28478C6.18926 8.07981 6.24165 7.82994 6.19871 7.58728C5.97138 6.37293 6.10031 5.11874 6.56996 3.97603C6.63377 3.82367 6.73035 3.68723 6.85285 3.5764C6.97534 3.46557 7.12074 3.38308 7.27871 3.33478C7.66121 3.22228 9.03371 2.99728 11.6325 4.68478C13.7362 4.17854 15.93 4.17854 18.0337 4.68478C20.6325 2.99728 22.005 3.21103 22.3762 3.33478C22.5342 3.38308 22.6796 3.46557 22.8021 3.5764C22.9246 3.68723 23.0211 3.82367 23.085 3.97603C23.5555 5.12245 23.6845 6.3805 23.4562 7.59853C23.4332 7.70828 23.4323 7.82151 23.4535 7.93162C23.4748 8.04172 23.5178 8.14648 23.58 8.23978C24.3186 9.35332 24.7101 10.661 24.705 11.9973C24.705 17.701 21.42 19.3548 19.08 19.8723C19.2861 20.476 19.3702 21.1146 19.3275 21.751V24.6085C19.328 24.8956 19.2188 25.1719 19.0222 25.3811C18.8256 25.5902 18.5565 25.7163 18.27 25.7335Z" fill="#F6F7F9"/>
</svg>
