<svg width="27" height="28" viewBox="0 0 27 28" fill="none" xmlns="http://www.w3.org/2000/svg">
<path fill-rule="evenodd" clip-rule="evenodd" d="M5.0625 2.67102C4.16739 2.67102 3.30895 3.0266 2.67601 3.65954C2.04308 4.29247 1.6875 5.15091 1.6875 6.04602V22.921C1.6875 23.8161 2.04308 24.6746 2.67601 25.3075C3.30895 25.9404 4.16739 26.296 5.0625 26.296H21.9375C22.8326 26.296 23.691 25.9404 24.324 25.3075C24.9569 24.6746 25.3125 23.8161 25.3125 22.921V6.04602C25.3125 5.15091 24.9569 4.29247 24.324 3.65954C23.691 3.0266 22.8326 2.67102 21.9375 2.67102H5.0625ZM6.92213 9.92221C7.45695 9.92221 7.96987 9.70975 8.34805 9.33157C8.72623 8.95339 8.93869 8.44047 8.93869 7.90565C8.93869 7.37082 8.72623 6.8579 8.34805 6.47972C7.96987 6.10154 7.45695 5.88908 6.92213 5.88908C6.3873 5.88908 5.87438 6.10154 5.4962 6.47972C5.11802 6.8579 4.90556 7.37082 4.90556 7.90565C4.90556 8.44047 5.11802 8.95339 5.4962 9.33157C5.87438 9.70975 6.3873 9.92221 6.92213 9.92221ZM8.60963 22.6055V11.5034H5.23463V22.6055H8.60963ZM10.8506 11.5034H14.2256V12.9901C14.7234 12.2105 15.8169 11.1608 17.8504 11.1608C20.277 11.1608 21.5949 12.769 21.5949 15.8285C21.5949 15.9753 21.6084 16.6452 21.6084 16.6452V22.6038H18.2334V16.6469C18.2334 15.8285 18.0613 14.2203 16.2422 14.2203C14.4214 14.2203 14.2678 16.2419 14.2256 17.5649V22.6038H10.8506V11.5034Z" fill="white"/>
</svg>
